<svg width="24" height="24" viewBox="0 0 24 24" fill="none" xmlns="http://www.w3.org/2000/svg">
<path d="M21.0002 3.9751H18.9752V3.1501C18.9752 2.7001 18.6002 2.2876 18.1127 2.2876C17.6252 2.2876 17.2502 2.6626 17.2502 3.1501V3.9376H6.71269V3.1501C6.71269 2.7001 6.3377 2.2876 5.85019 2.2876C5.3627 2.2876 4.9877 2.6626 4.9877 3.1501V3.9376H3.0002C1.7252 3.9376 0.637695 4.9876 0.637695 6.3001V19.3501C0.637695 20.6251 1.6877 21.7126 3.0002 21.7126H21.0002C22.2752 21.7126 23.3627 20.6626 23.3627 19.3501V6.3001C23.3627 5.0251 22.2752 3.9751 21.0002 3.9751ZM3.0002 5.6626H5.0252V6.4126C5.0252 6.8626 5.4002 7.2751 5.88769 7.2751C6.3752 7.2751 6.75019 6.9001 6.75019 6.4126V5.6626H17.3627V6.4126C17.3627 6.8626 17.7377 7.2751 18.2252 7.2751C18.7127 7.2751 19.0877 6.9001 19.0877 6.4126V5.6626H21.0002C21.3752 5.6626 21.6752 5.9626 21.6752 6.3376V8.8126H2.3627V6.3376C2.3627 5.9251 2.6252 5.6626 3.0002 5.6626ZM21.0002 19.9876H3.0002C2.6252 19.9876 2.3252 19.6876 2.3252 19.3126V10.4626H21.6377V19.3501C21.6752 19.7251 21.3752 19.9876 21.0002 19.9876Z" fill="#111928"/>
<path d="M10.8001 11.5127H9.9751C9.7501 11.5127 9.6001 11.6627 9.6001 11.8877V12.7127C9.6001 12.9377 9.7501 13.0877 9.9751 13.0877H10.8001C11.0251 13.0877 11.1751 12.9377 11.1751 12.7127V11.8877C11.1751 11.6627 10.9876 11.5127 10.8001 11.5127Z" fill="#111928"/>
<path d="M14.2127 11.5127H13.3877C13.1627 11.5127 13.0127 11.6627 13.0127 11.8877V12.7127C13.0127 12.9377 13.1627 13.0877 13.3877 13.0877H14.2127C14.4377 13.0877 14.5877 12.9377 14.5877 12.7127V11.8877C14.5877 11.6627 14.4377 11.5127 14.2127 11.5127Z" fill="#111928"/>
<path d="M17.6253 11.5127H16.8003C16.5753 11.5127 16.4253 11.6627 16.4253 11.8877V12.7127C16.4253 12.9377 16.5753 13.0877 16.8003 13.0877H17.6253C17.8503 13.0877 18.0003 12.9377 18.0003 12.7127V11.8877C18.0003 11.6627 17.8503 11.5127 17.6253 11.5127Z" fill="#111928"/>
<path d="M7.2 14.4001H6.375C6.15 14.4001 6 14.5501 6 14.7751V15.6001C6 15.8251 6.15 15.9751 6.375 15.9751H7.2C7.425 15.9751 7.575 15.8251 7.575 15.6001V14.7751C7.575 14.5501 7.3875 14.4001 7.2 14.4001Z" fill="#111928"/>
<path d="M10.8001 14.4001H9.9751C9.7501 14.4001 9.6001 14.5501 9.6001 14.7751V15.6001C9.6001 15.8251 9.7501 15.9751 9.9751 15.9751H10.8001C11.0251 15.9751 11.1751 15.8251 11.1751 15.6001V14.7751C11.1751 14.5501 10.9876 14.4001 10.8001 14.4001Z" fill="#111928"/>
<path d="M14.2127 14.4001H13.3877C13.1627 14.4001 13.0127 14.5501 13.0127 14.7751V15.6001C13.0127 15.8251 13.1627 15.9751 13.3877 15.9751H14.2127C14.4377 15.9751 14.5877 15.8251 14.5877 15.6001V14.7751C14.5877 14.5501 14.4377 14.4001 14.2127 14.4001Z" fill="#111928"/>
<path d="M17.6253 14.4001H16.8003C16.5753 14.4001 16.4253 14.5501 16.4253 14.7751V15.6001C16.4253 15.8251 16.5753 15.9751 16.8003 15.9751H17.6253C17.8503 15.9751 18.0003 15.8251 18.0003 15.6001V14.7751C18.0003 14.5501 17.8503 14.4001 17.6253 14.4001Z" fill="#111928"/>
<path d="M7.2 17.2876H6.375C6.15 17.2876 6 17.4376 6 17.6626V18.4876C6 18.7126 6.15 18.8626 6.375 18.8626H7.2C7.425 18.8626 7.575 18.7126 7.575 18.4876V17.6626C7.575 17.4376 7.3875 17.2876 7.2 17.2876Z" fill="#111928"/>
<path d="M10.8001 17.2876H9.9751C9.7501 17.2876 9.6001 17.4376 9.6001 17.6626V18.4876C9.6001 18.7126 9.7501 18.8626 9.9751 18.8626H10.8001C11.0251 18.8626 11.1751 18.7126 11.1751 18.4876V17.6626C11.1751 17.4376 10.9876 17.2876 10.8001 17.2876Z" fill="#111928"/>
<path d="M14.2127 17.2876H13.3877C13.1627 17.2876 13.0127 17.4376 13.0127 17.6626V18.4876C13.0127 18.7126 13.1627 18.8626 13.3877 18.8626H14.2127C14.4377 18.8626 14.5877 18.7126 14.5877 18.4876V17.6626C14.5877 17.4376 14.4377 17.2876 14.2127 17.2876Z" fill="#111928"/>
</svg>
