<svg width="24" height="24" viewBox="0 0 24 24" fill="none" xmlns="http://www.w3.org/2000/svg">
<path d="M22.2753 14.2125L20.8128 13.3125C20.4378 13.05 19.9128 13.2 19.6503 13.575C19.3878 13.9875 19.5378 14.475 19.9128 14.7375L20.8878 15.375L12.0003 20.9625L3.07529 15.375L4.05029 14.7375C4.46279 14.475 4.57529 13.95 4.31279 13.575C4.05029 13.1625 3.52529 13.05 3.15029 13.3125L1.68779 14.2125C1.31279 14.475 1.05029 14.8875 1.05029 15.3375C1.05029 15.7875 1.27529 16.2375 1.68779 16.4625L11.2878 22.5C11.5128 22.65 11.7378 22.6875 12.0003 22.6875C12.2628 22.6875 12.4878 22.6125 12.7128 22.5L22.2753 16.5C22.6503 16.2375 22.9128 15.825 22.9128 15.375C22.9128 14.925 22.6878 14.475 22.2753 14.2125Z" fill="#111928"/>
<path d="M13.3127 13.5375L12.0002 14.325L10.6877 13.5C10.2752 13.2375 9.78766 13.3875 9.52516 13.7625C9.26266 14.175 9.41266 14.6625 9.78766 14.925L11.5502 16.0125C11.7002 16.0875 11.8502 16.125 12.0002 16.125C12.1502 16.125 12.3002 16.0875 12.4502 16.0125L14.2127 14.925C14.6252 14.6625 14.7377 14.1375 14.4752 13.7625C14.2127 13.3875 13.6877 13.275 13.3127 13.5375Z" fill="#111928"/>
<path d="M5.06289 11.9625L7.53789 13.5375C7.68789 13.6125 7.83789 13.65 7.98789 13.65C8.25039 13.65 8.55039 13.5 8.70039 13.2375C8.96289 12.825 8.81289 12.3375 8.43789 12.075L5.96289 10.5C5.55039 10.2375 5.06289 10.3875 4.80039 10.7625C4.53789 11.2125 4.65039 11.7375 5.06289 11.9625Z" fill="#111928"/>
<path d="M3.2627 10.6875C3.5252 10.6875 3.8252 10.5375 3.9752 10.275C4.2377 9.8625 4.0877 9.375 3.7127 9.1125L3.1127 8.7375L3.7127 8.3625C4.1252 8.1 4.2377 7.57501 3.9752 7.20001C3.7127 6.78751 3.1877 6.675 2.8127 6.9375L1.0502 8.025C0.787695 8.175 0.637695 8.4375 0.637695 8.7375C0.637695 9.0375 0.787695 9.30001 1.0502 9.45001L2.8127 10.5375C2.9252 10.65 3.0752 10.6875 3.2627 10.6875Z" fill="#111928"/>
<path d="M5.51289 7.05C5.66289 7.05 5.81289 7.0125 5.96289 6.9375L8.43789 5.36251C8.85039 5.10001 8.96289 4.575 8.70039 4.2C8.43789 3.7875 7.91289 3.67501 7.53789 3.93751L5.06289 5.51251C4.65039 5.775 4.53789 6.3 4.80039 6.675C4.95039 6.9 5.21289 7.05 5.51289 7.05Z" fill="#111928"/>
<path d="M10.6875 3.93751L12 3.11251L13.3125 3.93751C13.4625 4.01251 13.6125 4.05001 13.7625 4.05001C14.025 4.05001 14.325 3.90001 14.475 3.63751C14.7375 3.22501 14.5875 2.73751 14.2125 2.47501L12.45 1.38751C12.1875 1.20001 11.8125 1.20001 11.55 1.38751L9.7875 2.47501C9.375 2.73751 9.2625 3.26251 9.525 3.63751C9.7875 4.01251 10.3125 4.20001 10.6875 3.93751Z" fill="#111928"/>
<path d="M15.5629 5.36251L18.0379 6.93751C18.1879 7.01251 18.3379 7.05001 18.4879 7.05001C18.7504 7.05001 19.0504 6.90001 19.2004 6.63751C19.4629 6.22501 19.3129 5.73751 18.9379 5.47501L16.4629 3.90001C16.0879 3.63751 15.5629 3.78751 15.3004 4.16251C15.0379 4.57501 15.1504 5.10001 15.5629 5.36251Z" fill="#111928"/>
<path d="M22.95 8.02501L21.1875 6.93751C20.8125 6.67501 20.2875 6.82501 20.025 7.20001C19.7625 7.61251 19.9125 8.10001 20.2875 8.36251L20.8875 8.73751L20.2875 9.11251C19.875 9.37501 19.7625 9.90001 20.025 10.275C20.175 10.5375 20.475 10.6875 20.7375 10.6875C20.8875 10.6875 21.0375 10.65 21.1875 10.575L22.95 9.48751C23.2125 9.33751 23.3625 9.07501 23.3625 8.77501C23.3625 8.47501 23.2125 8.17501 22.95 8.02501Z" fill="#111928"/>
<path d="M16.0129 13.65C16.1629 13.65 16.3129 13.6125 16.4629 13.5375L18.9379 11.9625C19.3504 11.7 19.4629 11.175 19.2004 10.8C18.9379 10.3875 18.4129 10.275 18.0379 10.5375L15.5629 12.1125C15.1504 12.375 15.0379 12.9 15.3004 13.275C15.4504 13.5375 15.7129 13.65 16.0129 13.65Z" fill="#111928"/>
</svg>
