<svg width="24" height="24" viewBox="0 0 24 24" fill="none" xmlns="http://www.w3.org/2000/svg">
<g clip-path="url(#clip0_1_6048)">
<path d="M15.1499 8.2876C15.1499 6.4126 13.6499 4.9126 11.7749 4.9126C9.8999 4.9126 8.3999 6.4126 8.3999 8.2876C8.3999 10.1626 9.8999 11.6626 11.7749 11.6626C13.6499 11.6626 15.1499 10.1626 15.1499 8.2876ZM10.0874 8.2876C10.0874 7.3501 10.8374 6.6001 11.7749 6.6001C12.7124 6.6001 13.4624 7.3501 13.4624 8.2876C13.4624 9.2251 12.7124 9.9751 11.7749 9.9751C10.8374 9.9751 10.0874 9.2251 10.0874 8.2876Z" fill="#111928"/>
<path d="M23.3251 22.0875L21.7876 15.15C21.7126 14.8125 21.4501 14.55 21.0751 14.5125L16.6126 13.875C18.0376 11.85 19.2001 9.71255 19.2001 8.06255C19.2001 4.08755 15.8626 0.862549 11.7751 0.862549C7.68758 0.862549 4.35008 4.08755 4.35008 8.06255C4.35008 9.71255 5.51258 11.85 6.93758 13.875L2.43758 14.5125C2.06258 14.55 1.80007 14.85 1.72508 15.225L0.675075 22.1625C0.637575 22.4625 0.750075 22.7626 0.975075 22.9501C1.20008 23.1376 1.50008 23.2125 1.80008 23.1L6.75008 21.375L11.7376 23.0625C11.9251 23.1375 12.1126 23.1375 12.2626 23.0625L17.2501 21.375L22.2376 23.0625C22.3126 23.1 22.4251 23.1 22.5001 23.1C22.6876 23.1 22.9126 23.025 23.0626 22.875C23.2876 22.725 23.4001 22.3876 23.3251 22.0875ZM11.7751 2.55005C14.9626 2.55005 17.5126 5.02505 17.5126 8.06255C17.5126 10.125 14.5501 14.0625 11.7751 17.1C9.00008 14.1 6.03758 10.125 6.03758 8.06255C6.03758 5.02505 8.58757 2.55005 11.7751 2.55005ZM17.5126 19.6875C17.3251 19.6125 17.1376 19.6125 16.9876 19.6875L12.0001 21.375L7.01258 19.6875C6.82508 19.6125 6.63757 19.6125 6.48757 19.6875L2.55008 21.0375L3.30008 16.125L8.06258 15.4125C8.92508 16.5 9.82508 17.5125 10.5376 18.3C10.8376 18.6375 11.2876 18.8251 11.7376 18.8251C12.1876 18.8251 12.6376 18.6375 12.9376 18.3C13.6501 17.5125 14.5501 16.5 15.4126 15.4125L20.2876 16.125L21.3751 21L17.5126 19.6875Z" fill="#111928"/>
</g>
<defs>
<clipPath id="clip0_1_6048">
<rect width="24" height="24" fill="white"/>
</clipPath>
</defs>
</svg>
