<svg width="24" height="24" viewBox="0 0 24 24" fill="none" xmlns="http://www.w3.org/2000/svg">
<g clip-path="url(#clip0_1_974)">
<path d="M21.8251 13.6125L20.4001 12.7875C20.4376 12.5625 20.4376 12.3 20.4376 12C20.4376 11.7375 20.4376 11.475 20.4001 11.2125L21.8251 10.3875C22.8001 9.82501 23.1376 8.55001 22.5751 7.57501L21.1126 5.02501C20.8501 4.53751 20.4001 4.20001 19.8751 4.08751C19.3501 3.93751 18.7876 4.01251 18.3001 4.27501L16.8751 5.13751C16.4626 4.83751 16.0126 4.57501 15.5251 4.35001V2.70001C15.5251 1.57501 14.5876 0.637512 13.4626 0.637512H10.5376C9.41262 0.637512 8.47512 1.57501 8.47512 2.70001V4.35001C7.98762 4.57501 7.53762 4.83751 7.12512 5.10001L5.70012 4.27501C5.21262 4.01251 4.68762 3.93751 4.12512 4.08751C3.60012 4.23751 3.15012 4.57501 2.88762 5.02501L1.42512 7.57501C0.862618 8.55001 1.20012 9.82501 2.17512 10.3875L3.60012 11.2125C3.56262 11.4375 3.56262 11.7 3.56262 12C3.56262 12.2625 3.56262 12.525 3.60012 12.7875L2.17512 13.6125C1.20012 14.175 0.862618 15.45 1.42512 16.425L2.88762 18.975C3.15012 19.4625 3.60012 19.8 4.12512 19.9125C4.65012 20.0625 5.21262 19.9875 5.70012 19.725L7.12512 18.9C7.53762 19.2 7.98762 19.4625 8.47512 19.65V21.3C8.47512 22.425 9.41262 23.3625 10.5376 23.3625H13.4626C14.5876 23.3625 15.5251 22.425 15.5251 21.3V19.65C16.0126 19.425 16.4626 19.1625 16.8751 18.8625L18.3001 19.6875C18.7876 19.95 19.3126 20.025 19.8376 19.875C20.3626 19.725 20.8126 19.3875 21.0751 18.9375L22.5376 16.3875C23.1001 15.4125 22.7626 14.175 21.8251 13.6125ZM21.1126 15.5625L19.6501 18.1125C19.6126 18.1875 19.5376 18.2625 19.4251 18.2625C19.3126 18.3 19.2376 18.2625 19.1626 18.225L17.6626 17.3625C17.1001 17.025 16.4251 17.0625 15.9001 17.4375C15.5626 17.7 15.1876 17.8875 14.7751 18.075C14.2126 18.3375 13.8376 18.9 13.8376 19.5375V21.2625C13.8376 21.45 13.6876 21.6375 13.4626 21.6375H10.5376C10.3501 21.6375 10.1626 21.4875 10.1626 21.2625V19.5375C10.1626 18.9 9.78762 18.3375 9.22512 18.075C8.81262 17.8875 8.43762 17.6625 8.10012 17.4375C7.83762 17.25 7.50012 17.1375 7.16262 17.1375C6.86262 17.1375 6.60012 17.2125 6.37512 17.3625L4.87512 18.225C4.80012 18.2625 4.68762 18.3 4.61262 18.2625C4.53762 18.225 4.46262 18.1875 4.38762 18.1125L2.92512 15.5625C2.81262 15.375 2.88762 15.15 3.03762 15.075L4.53762 14.2125C5.06262 13.9125 5.40012 13.275 5.32512 12.675C5.28762 12.4875 5.28762 12.2625 5.28762 12.0375C5.28762 11.775 5.28762 11.5875 5.32512 11.4C5.40012 10.7625 5.10012 10.1625 4.53762 9.86251L3.03762 9.00001C2.85012 8.88751 2.81262 8.66251 2.88762 8.51251L4.35012 5.96251C4.38762 5.88751 4.46262 5.81251 4.57512 5.81251C4.68762 5.77501 4.76262 5.81251 4.83762 5.85001L6.33762 6.71251C6.90012 7.05001 7.57512 7.01251 8.10012 6.63751C8.43762 6.37501 8.81262 6.18751 9.22512 6.00001C9.78762 5.73751 10.1626 5.17501 10.1626 4.53751V2.70001C10.1626 2.51251 10.3126 2.32501 10.5376 2.32501H13.4626C13.6501 2.32501 13.8376 2.47501 13.8376 2.70001V4.42501C13.8376 5.06251 14.2126 5.62501 14.7751 5.88751C15.1876 6.07501 15.5626 6.30001 15.9001 6.52501C16.4251 6.90001 17.1001 6.93751 17.6251 6.63751L19.1251 5.77501C19.2001 5.73751 19.3126 5.70001 19.3876 5.73751C19.4626 5.77501 19.5376 5.81251 19.6126 5.88751L21.0751 8.43751C21.1876 8.62501 21.1126 8.85001 20.9626 8.92501L19.4626 9.78751C18.9376 10.0875 18.6001 10.725 18.6751 11.325C18.7126 11.5125 18.7126 11.7375 18.7126 11.9625C18.7126 12.225 18.7126 12.4125 18.6751 12.6C18.6001 13.2375 18.9376 13.8375 19.4626 14.1375L20.9626 15C21.1501 15.15 21.1876 15.375 21.1126 15.5625Z" fill="#111928"/>
<path d="M12.0001 7.16251C9.3376 7.16251 7.1626 9.33751 7.1626 12C7.1626 14.6625 9.3376 16.8375 12.0001 16.8375C14.6626 16.8375 16.8376 14.6625 16.8376 12C16.8376 9.33751 14.6626 7.16251 12.0001 7.16251ZM12.0001 15.15C10.2751 15.15 8.8501 13.725 8.8501 12C8.8501 10.275 10.2751 8.85001 12.0001 8.85001C13.7251 8.85001 15.1501 10.275 15.1501 12C15.1501 13.725 13.7251 15.15 12.0001 15.15Z" fill="#111928"/>
<path d="M12.6378 12.075V11.025C12.6378 10.575 12.2628 10.2 11.8128 10.2C11.3628 10.2 10.9878 10.575 10.9878 11.025V12.45C10.9878 12.675 11.0628 12.9 11.2503 13.05L12.0753 13.875C12.2253 14.025 12.4503 14.1375 12.6753 14.1375C12.9003 14.1375 13.1253 14.0625 13.2753 13.875C13.6128 13.5375 13.6128 13.0125 13.2753 12.675L12.6378 12.075Z" fill="#111928"/>
</g>
<defs>
<clipPath id="clip0_1_974">
<rect width="24" height="24" fill="white"/>
</clipPath>
</defs>
</svg>
